<svg id="adobexd" xmlns="http://www.w3.org/2000/svg" width="57.24" height="55.809" viewBox="0 0 57.24 55.809">
  <path id="Path_1" data-name="Path 1" d="M10.136,0H47.1A10.128,10.128,0,0,1,57.24,10.136V45.673A10.128,10.128,0,0,1,47.1,55.809H10.136A10.128,10.128,0,0,1,0,45.673V10.136A10.128,10.128,0,0,1,10.136,0Z" fill="#470137"/>
  <g id="Group_1" data-name="Group 1" transform="translate(8.338 12.231)">
    <path id="Path_2" data-name="Path 2" d="M56.721,53.721,49.566,65.527,57.2,78.048a.41.41,0,0,1,.048.286c-.024.1-.119.024-.262.048H51.522c-.382,0-.644-.024-.811-.262-.5-1-1.026-1.98-1.526-2.981-.5-.978-1.049-1.98-1.622-3.005s-1.145-2.051-1.717-3.1H45.8c-.5,1.026-1.049,2.051-1.6,3.077s-1.1,2.051-1.622,3.053c-.549,1-1.1,2.027-1.646,3.005-.1.239-.286.262-.549.262H35.137c-.1,0-.167.048-.167-.072a.331.331,0,0,1,.048-.262l7.417-12.164L35.209,53.7c-.072-.1-.1-.191-.048-.238a.277.277,0,0,1,.239-.1h5.414a1.408,1.408,0,0,1,.334.048.677.677,0,0,1,.239.215c.453,1.026.978,2.051,1.526,3.077.572,1.026,1.121,2.027,1.717,3.029.572,1,1.1,2,1.6,3.029h.048c.5-1.049,1.026-2.075,1.55-3.077s1.073-2,1.622-3.005,1.073-2.027,1.6-3.005a.406.406,0,0,1,.143-.239.455.455,0,0,1,.31-.048h5.032a.22.22,0,0,1,.262.167c.024.024-.024.119-.072.167ZM67.74,78.883a11.857,11.857,0,0,1-5.128-1.073,8.315,8.315,0,0,1-3.6-3.244A10.32,10.32,0,0,1,57.7,69.128,9.8,9.8,0,0,1,59.011,64.1,9.9,9.9,0,0,1,62.8,60.4a12.2,12.2,0,0,1,6.034-1.383,4.26,4.26,0,0,1,.5.024c.215.024.453.024.739.048V51.551c0-.167.072-.262.239-.262h4.842a.214.214,0,0,1,.239.167V74.208c0,.429.024.906.048,1.431.048.5.072.978.1,1.383a.387.387,0,0,1-.239.382,18.215,18.215,0,0,1-3.888,1.145A21.038,21.038,0,0,1,67.74,78.883Zm2.337-4.77V63.619a6.1,6.1,0,0,0-.644-.119c-.262-.024-.525-.048-.787-.048a5.879,5.879,0,0,0-2.7.62,5.347,5.347,0,0,0-2.027,1.765,5.287,5.287,0,0,0-.787,3.029,6.646,6.646,0,0,0,.405,2.457,4.661,4.661,0,0,0,1.073,1.693,4.12,4.12,0,0,0,1.622.954,6.243,6.243,0,0,0,1.98.31c.358,0,.692-.024,1-.048A2.086,2.086,0,0,0,70.077,74.113Z" transform="translate(-34.961 -51.284)" fill="#ff61f6"/>
  </g>
</svg>
