<svg xmlns="http://www.w3.org/2000/svg" width="43.614" height="48.745" viewBox="0 0 43.614 48.745">
  <g id="css" transform="translate(-7 -5)">
    <path id="Path_14" data-name="Path 14" d="M50.614,5H7l3.848,43.614,17.959,5.131,17.959-5.131L50.614,5Z" fill="#0277bd"/>
    <path id="Path_15" data-name="Path 15" d="M24,8V48.92l14.367-4.1L41.574,8Z" transform="translate(4.807 0.848)" fill="#039be5"/>
    <path id="Path_16" data-name="Path 16" d="M35.673,13H24v5.131h6.286L29.9,23.262H24v5.131h5.644l-.385,5.772L24,35.961v5.388l10.134-3.335.9-14.752h0Z" transform="translate(4.807 2.262)" fill="#fff"/>
    <path id="Path_17" data-name="Path 17" d="M26.6,13v5.131H15.185L14.8,13ZM20.7,23.262l.257,5.131H26.6V23.262Zm.513,7.7H16.083l.385,7.055L26.6,41.349V35.961l-5.259-1.8Z" transform="translate(2.206 2.262)" fill="#eee"/>
  </g>
</svg>
