<svg id="figma" xmlns="http://www.w3.org/2000/svg" width="38.738" height="58.107" viewBox="0 0 38.738 58.107">
  <path id="Path_3" data-name="Path 3" d="M9.684,219.369a9.688,9.688,0,0,0,9.684-9.684V200H9.684a9.684,9.684,0,0,0,0,19.369Z" transform="translate(0 -161.262)" fill="#0acf83"/>
  <path id="Path_4" data-name="Path 4" d="M0,109.684A9.688,9.688,0,0,1,9.684,100h9.684v19.369H9.684A9.688,9.688,0,0,1,0,109.684Z" transform="translate(0 -80.631)" fill="#a259ff"/>
  <path id="Path_5" data-name="Path 5" d="M0,9.684A9.688,9.688,0,0,1,9.684,0h9.684V19.369H9.684A9.688,9.688,0,0,1,0,9.684Z" fill="#f24e1e"/>
  <path id="Path_6" data-name="Path 6" d="M100,0h9.684a9.684,9.684,0,0,1,0,19.369H100Z" transform="translate(-80.631)" fill="#ff7262"/>
  <path id="Path_7" data-name="Path 7" d="M119.369,109.684A9.684,9.684,0,1,1,109.684,100,9.688,9.688,0,0,1,119.369,109.684Z" transform="translate(-80.631 -80.631)" fill="#1abcfe"/>
</svg>
