<svg xmlns="http://www.w3.org/2000/svg" width="15.407" height="15.406" viewBox="0 0 15.407 15.406">
  <g id="git" transform="translate(-0.001 -0.935)">
    <path id="Path_9" data-name="Path 9" d="M15.117,8.024,8.39,1.3a.992.992,0,0,0-1.4,0l-1.4,1.4L7.362,4.466a1.178,1.178,0,0,1,1.492,1.5l1.707,1.708a1.18,1.18,0,1,1-.707.666L8.262,6.749V10.94a1.193,1.193,0,0,1,.312.223,1.181,1.181,0,1,1-1.283-.258V6.676A1.166,1.166,0,0,1,6.9,6.418,1.18,1.18,0,0,1,6.65,5.128L4.9,3.381.291,7.993a.992.992,0,0,0,0,1.4l6.727,6.726a.992.992,0,0,0,1.4,0l6.7-6.7a.993.993,0,0,0,0-1.4" transform="translate(0 -0.072)" fill="#de4c36"/>
  </g>
</svg>
