<svg xmlns="http://www.w3.org/2000/svg" width="48.463" height="43.158" viewBox="0 0 48.463 43.158">
  <g id="react" transform="translate(-175.7 -78)">
    <path id="Path_33" data-name="Path 33" d="M224.163,99.584c0-3.21-4.02-6.253-10.184-8.14,1.422-6.283.79-11.281-2-12.881a4.331,4.331,0,0,0-2.213-.553v2.2a2.287,2.287,0,0,1,1.126.257c1.343.771,1.926,3.7,1.472,7.478-.109.929-.286,1.907-.5,2.9a47.871,47.871,0,0,0-6.273-1.077,48.187,48.187,0,0,0-4.109-4.939c3.22-2.993,6.243-4.633,8.3-4.633V78c-2.717,0-6.273,1.936-9.868,5.295-3.6-3.339-7.152-5.255-9.868-5.255v2.2c2.045,0,5.077,1.63,8.3,4.6a46.657,46.657,0,0,0-4.08,4.929,46.128,46.128,0,0,0-6.283,1.087c-.227-.988-.4-1.946-.514-2.865-.464-3.773.109-6.707,1.442-7.488a2.2,2.2,0,0,1,1.136-.257v-2.2a4.4,4.4,0,0,0-2.232.553c-2.776,1.6-3.4,6.589-1.966,12.852-6.144,1.9-10.145,4.929-10.145,8.13s4.02,6.253,10.184,8.14c-1.422,6.283-.79,11.281,2,12.881a4.342,4.342,0,0,0,2.223.553c2.717,0,6.273-1.936,9.868-5.295,3.6,3.339,7.152,5.255,9.868,5.255a4.4,4.4,0,0,0,2.232-.553c2.776-1.6,3.4-6.589,1.966-12.852,6.125-1.887,10.125-4.929,10.125-8.13ZM211.3,93c-.365,1.274-.82,2.588-1.334,3.9-.4-.79-.83-1.581-1.294-2.371s-.938-1.561-1.422-2.312C208.654,92.422,210.007,92.679,211.3,93Zm-4.524,10.52c-.77,1.334-1.561,2.6-2.381,3.773-1.472.128-2.963.2-4.465.2s-2.983-.069-4.445-.188q-1.23-1.763-2.391-3.754-1.126-1.941-2.055-3.932c.612-1.324,1.3-2.647,2.045-3.941.771-1.334,1.561-2.6,2.381-3.773,1.472-.128,2.963-.2,4.465-.2s2.983.069,4.445.188q1.23,1.763,2.391,3.754,1.126,1.941,2.055,3.932c-.622,1.324-1.3,2.647-2.045,3.941Zm3.191-1.284c.533,1.324.988,2.647,1.363,3.932-1.294.316-2.657.583-4.07.79.484-.761.968-1.541,1.422-2.341s.879-1.59,1.284-2.381Zm-10.017,10.54a40.731,40.731,0,0,1-2.746-3.161c.889.04,1.8.069,2.717.069s1.847-.02,2.746-.069A38.555,38.555,0,0,1,199.951,112.771Zm-7.349-5.818c-1.4-.207-2.756-.464-4.05-.78.366-1.274.82-2.588,1.334-3.9.405.79.83,1.581,1.294,2.371S192.118,106.2,192.6,106.953ZM199.9,86.4a40.732,40.732,0,0,1,2.746,3.161c-.889-.04-1.8-.069-2.717-.069s-1.847.02-2.746.069A38.559,38.559,0,0,1,199.9,86.4Zm-7.31,5.818c-.484.761-.968,1.541-1.422,2.341s-.879,1.581-1.284,2.371c-.533-1.324-.988-2.647-1.363-3.932C189.816,92.689,191.179,92.422,192.592,92.215Zm-8.94,12.368c-3.5-1.492-5.759-3.448-5.759-5s2.262-3.517,5.759-5c.85-.365,1.778-.691,2.736-1a47.442,47.442,0,0,0,2.223,6.016,46.777,46.777,0,0,0-2.193,5.986C185.44,105.284,184.511,104.948,183.652,104.582Zm5.314,14.116c-1.343-.771-1.926-3.7-1.472-7.478.109-.929.286-1.907.5-2.9a47.872,47.872,0,0,0,6.273,1.077,48.188,48.188,0,0,0,4.109,4.939c-3.22,2.993-6.243,4.633-8.3,4.633A2.357,2.357,0,0,1,188.967,118.7Zm23.431-7.527c.464,3.774-.109,6.707-1.442,7.488a2.2,2.2,0,0,1-1.136.257c-2.045,0-5.077-1.63-8.3-4.6a46.652,46.652,0,0,0,4.08-4.929,46.131,46.131,0,0,0,6.283-1.087A27.656,27.656,0,0,1,212.4,111.171Zm3.8-6.589c-.85.366-1.778.691-2.736,1a47.445,47.445,0,0,0-2.223-6.016,46.775,46.775,0,0,0,2.193-5.986c.978.306,1.907.642,2.776,1.008,3.5,1.492,5.759,3.448,5.759,5S219.7,103.1,216.2,104.582Z" transform="translate(0)" fill="#61dafb"/>
    <circle id="Ellipse_2" data-name="Ellipse 2" cx="4.514" cy="4.514" r="4.514" transform="translate(195.407 95.07)" fill="#61dafb"/>
  </g>
</svg>
