<svg xmlns="http://www.w3.org/2000/svg" width="54.274" height="40.682" viewBox="0 0 54.274 40.682">
  <path id="sass" d="M48.708,30.382a11.141,11.141,0,0,0-4.917,1.145,10.291,10.291,0,0,1-1.1-2.547,6.763,6.763,0,0,1-.095-2.14,18.693,18.693,0,0,1,.643-2.307c-.007-.1-.118-.562-1.213-.571s-2.03.211-2.14.5a10.8,10.8,0,0,0-.451,1.617c-.191.992-2.184,4.531-3.316,6.381a6.643,6.643,0,0,1-.75-1.863,6.763,6.763,0,0,1-.095-2.14,18.693,18.693,0,0,1,.643-2.307c-.007-.1-.118-.562-1.212-.571s-2.03.211-2.14.5-.228.963-.451,1.617-2.873,6.555-3.567,8.085c-.354.78-.661,1.406-.878,1.833a0,0,0,0,1,0,0l-.036.076c-.186.364-.3.565-.3.565l0,.007c-.148.268-.306.516-.384.516a3.439,3.439,0,0,1,.023-1.689c.395-2.048,1.341-5.24,1.332-5.351,0-.057.176-.613-.618-.9a.987.987,0,0,0-1.118.19c-.068,0-.118.167-.118.167s.86-3.591-1.641-3.591c-1.564,0-3.73,1.711-4.8,3.261-.673.368-2.115,1.155-3.644,1.995l-1.755.966c-.038-.043-.078-.085-.117-.128-3.033-3.235-8.638-5.523-8.4-9.874.086-1.581.636-5.745,10.772-10.8,8.3-4.137,14.95-3,16.1-.476,1.641,3.605-3.552,10.3-12.174,11.271-3.285.369-5.015-.905-5.446-1.379-.453-.5-.521-.522-.69-.428-.275.153-.1.593,0,.856a5.115,5.115,0,0,0,3.115,2.45c1.585.521,5.442.805,10.106-1,5.225-2.02,9.3-7.643,8.105-12.341C34.77,7.2,26.846,5.626,19.346,8.29A37.681,37.681,0,0,0,6.571,15.615c-4.131,3.863-4.79,7.227-4.518,8.632C3.018,29.24,9.9,32.491,12.655,34.9l-.38.21c-1.381.683-6.627,3.429-7.94,6.329-1.489,3.29.237,5.651,1.379,5.969a8.468,8.468,0,0,0,9.123-3.7,9.172,9.172,0,0,0,.818-8.43c-.011-.021-.023-.042-.035-.064l1.081-.638c.7-.413,1.394-.8,1.992-1.124a13.351,13.351,0,0,0-.708,3.609A7.506,7.506,0,0,0,19.6,42.295a1.774,1.774,0,0,0,1.307.428c1.166,0,1.7-.97,2.283-2.117.718-1.406,1.356-3.044,1.356-3.044s-.8,4.423,1.379,4.423c.794,0,1.592-1.03,1.949-1.554a.052.052,0,0,1,0,.009l.062-.1c.083-.126.13-.206.13-.206l0-.023c.319-.554,1.027-1.817,2.088-3.9,1.372-2.691,2.686-6.064,2.686-6.064a18.012,18.012,0,0,0,.523,2.188,20.4,20.4,0,0,0,1.132,2.54c-.318.442-.513.694-.513.694a.1.1,0,0,0,0,.014c-.254.338-.539.7-.838,1.057a30.629,30.629,0,0,0-2.545,3.186.87.87,0,0,0,.238,1.166,2.138,2.138,0,0,0,1.332.215,6.068,6.068,0,0,0,1.995-.454,6.693,6.693,0,0,0,1.715-.9,3.814,3.814,0,0,0,1.641-3.377,6.841,6.841,0,0,0-.623-2.386c.1-.138.192-.279.29-.419a45.384,45.384,0,0,0,2.973-5.136,18.012,18.012,0,0,0,.523,2.188,15.165,15.165,0,0,0,.963,2.181,9.333,9.333,0,0,0-2.889,3.74c-.627,1.8-.136,2.62.784,2.806A2.841,2.841,0,0,0,41,39.149a6.707,6.707,0,0,0,1.833-.942,4.11,4.11,0,0,0,2.022-3.353,6.288,6.288,0,0,0-.459-1.983,10.365,10.365,0,0,1,5.262-.608c4.72.551,5.646,3.5,5.469,4.732a3.114,3.114,0,0,1-1.5,2.117c-.331.2-.432.276-.4.428.041.221.194.213.476.165a3.68,3.68,0,0,0,2.568-3.28C56.382,33.531,53.613,30.356,48.708,30.382ZM12.324,42.647C10.76,44.353,8.577,45,7.639,44.454c-1.011-.586-.611-3.1,1.307-4.908A24.817,24.817,0,0,1,12.628,36.8l.97-.582.106-.059v0l.242-.146A6.776,6.776,0,0,1,12.324,42.647ZM23.715,34.9c-.544,1.327-1.684,4.724-2.378,4.542-.6-.157-.958-2.738-.118-5.279a11.752,11.752,0,0,1,1.855-3.4c.854-.955,1.793-1.267,2.022-.879C25.385,30.381,24.057,34.072,23.715,34.9Zm9.41,4.49c-.231.121-.443.2-.54.138-.073-.043.095-.2.095-.2s1.177-1.267,1.641-1.843c.27-.335.582-.734.923-1.178,0,.044,0,.089,0,.132C35.244,37.959,33.779,38.983,33.125,39.395Zm7.249-1.653c-.173-.122-.143-.518.423-1.753a6.625,6.625,0,0,1,1.611-2.08,2.963,2.963,0,0,1-2.034,3.832Z" transform="translate(-2 -6.999)" fill="#f06292"/>
</svg>
