<svg xmlns="http://www.w3.org/2000/svg" width="52.352" height="52.352" viewBox="0 0 52.352 52.352">
  <g id="styled-components" transform="translate(1 1)">
    <path id="Path_27" data-name="Path 27" d="M0,0H50.352V50.352H0Z" fill="none" stroke="#f8f8f8" stroke-width="2"/>
    <path id="Path_28" data-name="Path 28" d="M36.931,104.584c-.7,0-1.163.376-1.163.878,0,.445.274.741.895.912.564.16.684.239.684.49,0,.228-.211.365-.536.365a1.362,1.362,0,0,1-.821-.3l-.365.41a1.764,1.764,0,0,0,1.2.428c.69,0,1.271-.331,1.271-.958,0-.536-.348-.787-.963-.952-.513-.143-.633-.234-.633-.433,0-.182.165-.3.456-.3a1.375,1.375,0,0,1,.758.245l.285-.428a1.7,1.7,0,0,0-1.072-.359Zm3.232,2.491.257.467a1.319,1.319,0,0,1-.758.228c-.593-.006-.906-.342-.906-.986v-1.59h-.473v-.524h.473V104l.73-.086v.752h.7l-.074.524h-.627v1.573c0,.3.1.416.319.416A.719.719,0,0,0,40.163,107.075Zm3.107-2.405-.98,3.027a1.618,1.618,0,0,1-1.568,1.231l-.074-.53a1,1,0,0,0,.963-.713H41.36L40.4,104.67h.775l.656,2.531.684-2.531Zm1.157,3.1a1.2,1.2,0,0,0,.484-.1l-.154-.513a.511.511,0,0,1-.171.028c-.12,0-.171-.068-.171-.211v-3.591l-.73.08V107a.693.693,0,0,0,.741.775Zm3.443-1.664c0,.1-.011.217-.017.3H45.96c.051.616.342.815.741.815a1.253,1.253,0,0,0,.752-.268l.3.416a1.734,1.734,0,0,1-1.117.4A1.385,1.385,0,0,1,45.2,106.2c0-.918.485-1.613,1.34-1.613S47.87,105.154,47.87,106.106Zm-.724-.177V105.9c0-.5-.177-.792-.587-.792-.342,0-.559.228-.6.827Zm3.186-2.548.73.08v4.224h-.644l-.051-.382a1.007,1.007,0,0,1-.861.467c-.752,0-1.146-.633-1.146-1.59,0-.929.467-1.6,1.214-1.6a1.05,1.05,0,0,1,.758.325Zm-.621,3.836a.713.713,0,0,0,.621-.388v-1.379a.724.724,0,0,0-.576-.319c-.376,0-.627.319-.627,1.043C49.13,106.95,49.352,107.218,49.711,107.218Zm-12.755,3.067a1.432,1.432,0,0,0-1.408,1.619,1.39,1.39,0,0,0,1.414,1.568,1.487,1.487,0,0,0,.975-.348l-.325-.462a1.048,1.048,0,0,1-.61.217c-.41,0-.678-.257-.678-.986s.257-1.032.678-1.032a.963.963,0,0,1,.61.217l.325-.439a1.4,1.4,0,0,0-.98-.353Zm2.742,0c.889,0,1.414.6,1.414,1.59a1.414,1.414,0,0,1-1.419,1.6c-.889,0-1.419-.6-1.419-1.6A1.413,1.413,0,0,1,39.7,110.284Zm0,.553c-.428,0-.656.325-.656,1.037s.222,1.043.65,1.043.65-.325.65-1.043S40.12,110.837,39.7,110.837Zm5.3-.553a1.074,1.074,0,0,0-.906.507.735.735,0,0,0-.73-.507,1.023,1.023,0,0,0-.872.479l-.057-.393H41.8v3.015h.73v-2.1c.165-.279.319-.456.576-.456.177,0,.331.108.331.485v2.069h.73v-2.1c.165-.279.319-.456.57-.456.182,0,.331.108.331.485v2.069h.73V111.2a.806.806,0,0,0-.8-.918Zm3.209,0c.787,0,1.117.621,1.117,1.585,0,.923-.428,1.6-1.191,1.6a.953.953,0,0,1-.758-.331v1.408l-.73.08V110.37h.638l.04.371a1.094,1.094,0,0,1,.884-.456Zm-.279,2.628c.4,0,.633-.308.633-1.037,0-.764-.205-1.043-.57-1.043a.756.756,0,0,0-.616.41V112.6A.638.638,0,0,0,47.923,112.912Zm3.346-2.628c.889,0,1.414.6,1.414,1.59a1.414,1.414,0,0,1-1.419,1.6c-.889,0-1.419-.6-1.419-1.6A1.413,1.413,0,0,1,51.269,110.284Zm0,.553c-.428,0-.656.325-.656,1.037s.222,1.043.65,1.043.65-.325.65-1.043S51.691,110.837,51.269,110.837Zm3.705-.553a1.125,1.125,0,0,0-.918.479L54,110.37h-.633v3.015h.73v-2.1c.177-.279.371-.456.633-.456.228,0,.371.108.371.485v2.069h.73V111.2a.812.812,0,0,0-.855-.918Zm4.178,1.522c0,.1-.011.217-.017.3H57.243c.051.616.342.815.741.815a1.253,1.253,0,0,0,.752-.268l.3.416a1.734,1.734,0,0,1-1.117.4,1.385,1.385,0,0,1-1.436-1.573c0-.918.485-1.613,1.34-1.613S59.153,110.854,59.153,111.806Zm-.724-.177V111.6c0-.5-.177-.792-.587-.792-.342,0-.559.228-.6.827Zm2.987-1.345a1.125,1.125,0,0,0-.918.479l-.057-.393h-.633v3.015h.73v-2.1c.177-.279.371-.456.633-.456.228,0,.371.108.371.485v2.069h.73V111.2a.812.812,0,0,0-.855-.918Zm3.175,2.491a.719.719,0,0,1-.359.108c-.222,0-.319-.12-.319-.416v-1.573h.627l.074-.524h-.7v-.752l-.73.086v.667h-.473v.524h.473v1.59c0,.644.314.98.906.986a1.319,1.319,0,0,0,.758-.228Zm1.619-2.491c-.7,0-1.163.376-1.163.878,0,.445.274.741.895.912.564.16.684.239.684.49,0,.228-.211.365-.536.365a1.362,1.362,0,0,1-.821-.3l-.365.41a1.764,1.764,0,0,0,1.2.428c.69,0,1.271-.331,1.271-.958,0-.536-.348-.787-.963-.952-.513-.143-.633-.234-.633-.433,0-.182.165-.3.456-.3a1.375,1.375,0,0,1,.758.245l.285-.428a1.7,1.7,0,0,0-1.072-.359ZM42.555,82.066l-5.732,3.563,5.732,3.626-.586.728L36,86.246V85l6.033-3.737m29.974,3.594v1.235l-5.969,3.737-.586-.776,5.716-3.578-5.716-3.594.507-.776" transform="translate(-29.919 -68.259)" fill="#e4e4e4" fill-rule="evenodd"/>
    <text id="_" data-name="💅" transform="translate(16.941 21.421)" font-size="15" font-family="SegoeUIEmoji, Segoe UI Emoji" letter-spacing="0.005em"><tspan x="0" y="0">💅</tspan></text>
  </g>
</svg>
