<svg xmlns="http://www.w3.org/2000/svg" width="40.85" height="40.413" viewBox="0 0 40.85 40.413">
  <g id="visual-studio-code" transform="translate(-2.725 -13.962)">
    <path id="Path_29" data-name="Path 29" d="M3.114,248.268s-.995-.717.2-1.675l2.782-2.487A1.181,1.181,0,0,1,7.732,244L33.4,263.432v9.319s-.012,1.463-1.89,1.3Z" transform="translate(0 -220.214)" fill="#2489ca"/>
    <path id="Path_30" data-name="Path 30" d="M11.73,498.8l-6.616,6.015s-.68.506,0,1.41l3.072,2.794a1.262,1.262,0,0,0,1.807-.108l7.014-5.319Z" transform="translate(-2 -464.739)" fill="#1070b3"/>
    <path id="Path_31" data-name="Path 31" d="M305.339,41.983l12.134-9.265-.079-9.27s-.518-2.023-2.247-.97L299,37.174Z" transform="translate(-283.992 -7.872)" fill="#0877b9"/>
    <path id="Path_32" data-name="Path 32" d="M688.856,53.852a1.669,1.669,0,0,0,1.559.485l9.456-4.66a1.994,1.994,0,0,0,1.041-1.849V20a1.86,1.86,0,0,0-1.252-1.646l-8.2-3.951a2.276,2.276,0,0,0-2.964.2s1.509-1.086,2.247.97V52.368a1.672,1.672,0,0,1-.162.725c-.216.435-.684.842-1.807.672Z" transform="translate(-657.345 0)" fill="#3c99d4"/>
  </g>
</svg>
