<svg xmlns="http://www.w3.org/2000/svg" width="16.848" height="16.848" viewBox="0 0 16.848 16.848">
  <path id="download-solid" d="M7.108,0H9.74a.788.788,0,0,1,.79.79V6.318h2.886A.657.657,0,0,1,13.88,7.44L8.875,12.448a.638.638,0,0,1-.9,0L2.965,7.44a.657.657,0,0,1,.464-1.122H6.318V.79A.788.788,0,0,1,7.108,0Zm9.74,12.373v3.686a.788.788,0,0,1-.79.79H.79a.788.788,0,0,1-.79-.79V12.373a.788.788,0,0,1,.79-.79H5.617L7.23,13.2a1.686,1.686,0,0,0,2.389,0l1.612-1.612h4.827A.788.788,0,0,1,16.848,12.373Zm-4.08,2.9a.658.658,0,1,0-.658.658A.66.66,0,0,0,12.768,15.269Zm2.106,0a.658.658,0,1,0-.658.658A.66.66,0,0,0,14.874,15.269Z" fill="#f5f5f5"/>
</svg>
